<svg width="32" height="32" viewBox="0 0 32 32" fill="none" xmlns="http://www.w3.org/2000/svg">
<path fill-rule="evenodd" clip-rule="evenodd" d="M1.53681 0.454879C-0.0135899 1.29387 9.99637e-06 1.15665 9.99637e-06 15.9942C9.99637e-06 30.9011 -0.0189235 30.716 1.59121 31.5463C2.76454 32.1512 29.2355 32.1512 30.4088 31.5463C32.0189 30.716 32 30.9011 32 15.9942C32 1.08725 32.0189 1.27233 30.4088 0.442115C29.2501 -0.155418 2.64268 -0.143452 1.53681 0.454879ZM29.4477 2.58387C29.8101 2.94553 29.8667 4.09353 29.8667 11.11V19.2183L27.5011 17.1031C25.0517 14.9129 24.0715 14.4484 22.8656 14.9058C22.484 15.0504 20.5331 16.6409 18.5304 18.4402C16.5277 20.2394 14.7261 21.8033 14.5267 21.9158C14.2859 22.0512 13.6211 21.6366 12.5501 20.6838C9.8568 18.2873 9.20187 18.3952 5.30934 21.8775C3.69521 23.322 2.32001 24.5038 2.25388 24.5038C2.18747 24.5038 2.13334 19.6658 2.13334 13.7527C2.13334 4.33392 2.18534 2.95005 2.55227 2.58387C2.92187 2.21557 4.51147 2.1661 16 2.1661C27.4885 2.1661 29.0781 2.21557 29.4477 2.58387ZM21.4232 4.69611C20.1651 5.44815 19.2 7.12055 19.2 8.5483C19.2 9.99732 20.1688 11.6599 21.4491 12.4079C24.1723 13.9995 27.4459 12.6518 28.2699 9.60003C28.7832 7.69867 27.6949 5.36917 25.8483 4.41689C24.6576 3.80287 22.7123 3.92573 21.4232 4.69611ZM25.3539 6.93227C25.8859 7.46279 26.1333 7.97603 26.1333 8.5483C26.1333 9.5386 24.8869 10.9416 24.0072 10.9416C23.2344 10.9416 21.968 10.2587 21.7656 9.73299C20.7699 7.14528 23.4611 5.04474 25.3539 6.93227ZM26.9192 19.5805L29.6 21.9701V25.5771C29.6 28.0278 29.4973 29.2864 29.28 29.5032C29.0397 29.7428 25.7139 29.8223 15.9528 29.8223H2.94561L2.53227 29.1934C2.23441 28.74 2.18721 28.3873 2.36347 27.9302C2.62934 27.2391 8.87867 21.5031 9.52827 21.3539C9.748 21.3034 10.4243 21.7344 11.0307 22.3118C12.5869 23.7932 13.3328 24.2381 14.2595 24.2368C15.3736 24.2355 16.1645 23.6712 20 20.1413C21.9064 18.3867 23.5272 17.0986 23.7859 17.1321C24.0349 17.1645 25.4448 18.2663 26.9192 19.5805Z" fill="#F6601F"/>
</svg>
